<mxfile host="app.diagrams.net" modified="2021-10-20T16:36:04.883Z" agent="5.0 (Windows NT 10.0; Win64; x64) AppleWebKit/537.36 (KHTML, like Gecko) Chrome/94.0.4606.81 Safari/537.36" etag="AqiQ9QigWzz5tyeJ9Rb-" version="15.5.6" type="github">
  <diagram id="LrHRVttqDQ-K4NAFH6lR" name="Page-1">
    <mxGraphModel dx="868" dy="496" grid="1" gridSize="10" guides="1" tooltips="1" connect="1" arrows="1" fold="1" page="1" pageScale="1" pageWidth="1169" pageHeight="827" math="0" shadow="0">
      <root>
        <mxCell id="0" />
        <mxCell id="1" parent="0" />
        <mxCell id="0iNWYEbnOwwHhJDFPIUG-52" style="edgeStyle=orthogonalEdgeStyle;rounded=0;orthogonalLoop=1;jettySize=auto;html=1;exitX=0;exitY=0.5;exitDx=0;exitDy=0;entryX=0.5;entryY=1;entryDx=0;entryDy=0;endArrow=none;endFill=0;" parent="1" edge="1">
          <mxGeometry relative="1" as="geometry">
            <mxPoint x="165" y="550" as="sourcePoint" />
            <mxPoint x="90" y="444" as="targetPoint" />
          </mxGeometry>
        </mxCell>
        <mxCell id="0iNWYEbnOwwHhJDFPIUG-53" value="(0,N)" style="edgeLabel;html=1;align=center;verticalAlign=middle;resizable=0;points=[];" parent="0iNWYEbnOwwHhJDFPIUG-52" vertex="1" connectable="0">
          <mxGeometry x="-0.7646" y="-1" relative="1" as="geometry">
            <mxPoint as="offset" />
          </mxGeometry>
        </mxCell>
        <mxCell id="0iNWYEbnOwwHhJDFPIUG-55" value="(1,1)" style="edgeLabel;html=1;align=center;verticalAlign=middle;resizable=0;points=[];" parent="0iNWYEbnOwwHhJDFPIUG-52" vertex="1" connectable="0">
          <mxGeometry x="0.8544" y="-1" relative="1" as="geometry">
            <mxPoint as="offset" />
          </mxGeometry>
        </mxCell>
        <mxCell id="0iNWYEbnOwwHhJDFPIUG-6" value="Peças" style="whiteSpace=wrap;html=1;align=center;" parent="1" vertex="1">
          <mxGeometry x="165" y="530" width="100" height="40" as="geometry" />
        </mxCell>
        <mxCell id="0iNWYEbnOwwHhJDFPIUG-7" value="Depósitos" style="whiteSpace=wrap;html=1;align=center;" parent="1" vertex="1">
          <mxGeometry x="40" y="404" width="100" height="40" as="geometry" />
        </mxCell>
        <mxCell id="0iNWYEbnOwwHhJDFPIUG-14" style="edgeStyle=orthogonalEdgeStyle;rounded=0;orthogonalLoop=1;jettySize=auto;html=1;exitX=0.5;exitY=0;exitDx=0;exitDy=0;entryX=0.5;entryY=1;entryDx=0;entryDy=0;endArrow=none;endFill=0;" parent="1" source="0iNWYEbnOwwHhJDFPIUG-8" target="0iNWYEbnOwwHhJDFPIUG-10" edge="1">
          <mxGeometry relative="1" as="geometry" />
        </mxCell>
        <mxCell id="0iNWYEbnOwwHhJDFPIUG-15" value="(1,1)" style="edgeLabel;html=1;align=center;verticalAlign=middle;resizable=0;points=[];" parent="0iNWYEbnOwwHhJDFPIUG-14" vertex="1" connectable="0">
          <mxGeometry x="0.6512" relative="1" as="geometry">
            <mxPoint as="offset" />
          </mxGeometry>
        </mxCell>
        <mxCell id="0iNWYEbnOwwHhJDFPIUG-16" value="(0,N)" style="edgeLabel;html=1;align=center;verticalAlign=middle;resizable=0;points=[];" parent="0iNWYEbnOwwHhJDFPIUG-14" vertex="1" connectable="0">
          <mxGeometry x="-0.691" y="-1" relative="1" as="geometry">
            <mxPoint as="offset" />
          </mxGeometry>
        </mxCell>
        <mxCell id="0iNWYEbnOwwHhJDFPIUG-8" value="Funcionário" style="whiteSpace=wrap;html=1;align=center;" parent="1" vertex="1">
          <mxGeometry x="975" y="530" width="100" height="40" as="geometry" />
        </mxCell>
        <mxCell id="0iNWYEbnOwwHhJDFPIUG-37" style="edgeStyle=orthogonalEdgeStyle;rounded=0;orthogonalLoop=1;jettySize=auto;html=1;exitX=0;exitY=0.5;exitDx=0;exitDy=0;entryX=1;entryY=0.5;entryDx=0;entryDy=0;endArrow=none;endFill=0;" parent="1" source="0iNWYEbnOwwHhJDFPIUG-9" target="0iNWYEbnOwwHhJDFPIUG-36" edge="1">
          <mxGeometry relative="1" as="geometry" />
        </mxCell>
        <mxCell id="0iNWYEbnOwwHhJDFPIUG-39" value="(1,1)" style="edgeLabel;html=1;align=center;verticalAlign=middle;resizable=0;points=[];" parent="0iNWYEbnOwwHhJDFPIUG-37" vertex="1" connectable="0">
          <mxGeometry x="-0.7442" y="2" relative="1" as="geometry">
            <mxPoint x="-5" y="-3" as="offset" />
          </mxGeometry>
        </mxCell>
        <mxCell id="0iNWYEbnOwwHhJDFPIUG-40" value="(0,N)" style="edgeLabel;html=1;align=center;verticalAlign=middle;resizable=0;points=[];" parent="0iNWYEbnOwwHhJDFPIUG-37" vertex="1" connectable="0">
          <mxGeometry x="0.8068" relative="1" as="geometry">
            <mxPoint x="8" y="-1" as="offset" />
          </mxGeometry>
        </mxCell>
        <mxCell id="0iNWYEbnOwwHhJDFPIUG-9" value="Projeto&lt;span style=&quot;color: rgba(0 , 0 , 0 , 0) ; font-family: monospace ; font-size: 0px&quot;&gt;%3CmxGraphModel%3E%3Croot%3E%3CmxCell%20id%3D%220%22%2F%3E%3CmxCell%20id%3D%221%22%20parent%3D%220%22%2F%3E%3CmxCell%20id%3D%222%22%20value%3D%22Fornecedor%22%20style%3D%22whiteSpace%3Dwrap%3Bhtml%3D1%3Balign%3Dcenter%3B%22%20vertex%3D%221%22%20parent%3D%221%22%3E%3CmxGeometry%20x%3D%22470%22%20y%3D%22160%22%20width%3D%22100%22%20height%3D%2240%22%20as%3D%22geometry%22%2F%3E%3C%2FmxCell%3E%3C%2Froot%3E%3C%2FmxGraphModel%3E&lt;/span&gt;" style="whiteSpace=wrap;html=1;align=center;" parent="1" vertex="1">
          <mxGeometry x="545" y="530" width="100" height="40" as="geometry" />
        </mxCell>
        <mxCell id="0iNWYEbnOwwHhJDFPIUG-10" value="Departamento" style="whiteSpace=wrap;html=1;align=center;" parent="1" vertex="1">
          <mxGeometry x="975" y="404" width="100" height="40" as="geometry" />
        </mxCell>
        <mxCell id="0iNWYEbnOwwHhJDFPIUG-28" style="edgeStyle=orthogonalEdgeStyle;rounded=0;orthogonalLoop=1;jettySize=auto;html=1;exitX=0.5;exitY=1;exitDx=0;exitDy=0;entryX=0.5;entryY=0;entryDx=0;entryDy=0;endArrow=none;endFill=0;" parent="1" source="0iNWYEbnOwwHhJDFPIUG-11" target="0iNWYEbnOwwHhJDFPIUG-27" edge="1">
          <mxGeometry relative="1" as="geometry" />
        </mxCell>
        <mxCell id="0iNWYEbnOwwHhJDFPIUG-30" value="(0,N)" style="edgeLabel;html=1;align=center;verticalAlign=middle;resizable=0;points=[];" parent="0iNWYEbnOwwHhJDFPIUG-28" vertex="1" connectable="0">
          <mxGeometry x="0.698" y="-1" relative="1" as="geometry">
            <mxPoint x="1" as="offset" />
          </mxGeometry>
        </mxCell>
        <mxCell id="0iNWYEbnOwwHhJDFPIUG-31" value="(1,1)" style="edgeLabel;html=1;align=center;verticalAlign=middle;resizable=0;points=[];" parent="0iNWYEbnOwwHhJDFPIUG-28" vertex="1" connectable="0">
          <mxGeometry x="-0.7745" y="3" relative="1" as="geometry">
            <mxPoint x="-3" as="offset" />
          </mxGeometry>
        </mxCell>
        <mxCell id="0iNWYEbnOwwHhJDFPIUG-11" value="Fornecedor" style="whiteSpace=wrap;html=1;align=center;" parent="1" vertex="1">
          <mxGeometry x="545" y="270" width="100" height="40" as="geometry" />
        </mxCell>
        <mxCell id="0iNWYEbnOwwHhJDFPIUG-23" style="edgeStyle=orthogonalEdgeStyle;rounded=0;orthogonalLoop=1;jettySize=auto;html=1;exitX=0;exitY=0.5;exitDx=0;exitDy=0;entryX=1;entryY=0.5;entryDx=0;entryDy=0;endArrow=none;endFill=0;" parent="1" source="0iNWYEbnOwwHhJDFPIUG-19" target="0iNWYEbnOwwHhJDFPIUG-9" edge="1">
          <mxGeometry relative="1" as="geometry" />
        </mxCell>
        <mxCell id="0iNWYEbnOwwHhJDFPIUG-24" value="(1,1)" style="edgeLabel;html=1;align=center;verticalAlign=middle;resizable=0;points=[];" parent="0iNWYEbnOwwHhJDFPIUG-23" vertex="1" connectable="0">
          <mxGeometry x="0.7333" y="1" relative="1" as="geometry">
            <mxPoint x="8" as="offset" />
          </mxGeometry>
        </mxCell>
        <mxCell id="0iNWYEbnOwwHhJDFPIUG-25" value="(0,N)" style="edgeLabel;html=1;align=center;verticalAlign=middle;resizable=0;points=[];" parent="0iNWYEbnOwwHhJDFPIUG-23" vertex="1" connectable="0">
          <mxGeometry x="-0.7333" relative="1" as="geometry">
            <mxPoint x="-8" as="offset" />
          </mxGeometry>
        </mxCell>
        <mxCell id="0iNWYEbnOwwHhJDFPIUG-19" value="Ter/Pertencer" style="shape=associativeEntity;whiteSpace=wrap;html=1;align=center;" parent="1" vertex="1">
          <mxGeometry x="735" y="520" width="140" height="60" as="geometry" />
        </mxCell>
        <mxCell id="0iNWYEbnOwwHhJDFPIUG-20" value="" style="edgeStyle=orthogonalEdgeStyle;rounded=0;orthogonalLoop=1;jettySize=auto;html=1;exitX=0;exitY=0.5;exitDx=0;exitDy=0;endArrow=none;endFill=0;" parent="1" source="0iNWYEbnOwwHhJDFPIUG-8" target="0iNWYEbnOwwHhJDFPIUG-19" edge="1">
          <mxGeometry relative="1" as="geometry">
            <mxPoint x="955" y="550" as="sourcePoint" />
            <mxPoint x="725" y="550" as="targetPoint" />
            <Array as="points">
              <mxPoint x="955" y="550" />
              <mxPoint x="955" y="550" />
            </Array>
          </mxGeometry>
        </mxCell>
        <mxCell id="0iNWYEbnOwwHhJDFPIUG-22" value="(0,N)" style="edgeLabel;html=1;align=center;verticalAlign=middle;resizable=0;points=[];" parent="0iNWYEbnOwwHhJDFPIUG-20" vertex="1" connectable="0">
          <mxGeometry x="0.76" relative="1" as="geometry">
            <mxPoint x="5" as="offset" />
          </mxGeometry>
        </mxCell>
        <mxCell id="0iNWYEbnOwwHhJDFPIUG-26" value="(1,1)" style="edgeLabel;html=1;align=center;verticalAlign=middle;resizable=0;points=[];" parent="0iNWYEbnOwwHhJDFPIUG-20" vertex="1" connectable="0">
          <mxGeometry x="-0.76" y="-3" relative="1" as="geometry">
            <mxPoint x="-8" y="3" as="offset" />
          </mxGeometry>
        </mxCell>
        <mxCell id="0iNWYEbnOwwHhJDFPIUG-29" style="edgeStyle=orthogonalEdgeStyle;rounded=0;orthogonalLoop=1;jettySize=auto;html=1;exitX=0.5;exitY=1;exitDx=0;exitDy=0;entryX=0.5;entryY=0;entryDx=0;entryDy=0;endArrow=none;endFill=0;" parent="1" source="0iNWYEbnOwwHhJDFPIUG-27" target="0iNWYEbnOwwHhJDFPIUG-9" edge="1">
          <mxGeometry relative="1" as="geometry" />
        </mxCell>
        <mxCell id="0iNWYEbnOwwHhJDFPIUG-32" value="(0,N)" style="edgeLabel;html=1;align=center;verticalAlign=middle;resizable=0;points=[];" parent="0iNWYEbnOwwHhJDFPIUG-29" vertex="1" connectable="0">
          <mxGeometry x="-0.8107" y="-1" relative="1" as="geometry">
            <mxPoint x="1" as="offset" />
          </mxGeometry>
        </mxCell>
        <mxCell id="0iNWYEbnOwwHhJDFPIUG-33" value="(1,1)" style="edgeLabel;html=1;align=center;verticalAlign=middle;resizable=0;points=[];" parent="0iNWYEbnOwwHhJDFPIUG-29" vertex="1" connectable="0">
          <mxGeometry x="0.761" y="1" relative="1" as="geometry">
            <mxPoint x="-1" as="offset" />
          </mxGeometry>
        </mxCell>
        <mxCell id="0iNWYEbnOwwHhJDFPIUG-27" value="Fornecedor de &lt;br&gt;projeto" style="shape=associativeEntity;whiteSpace=wrap;html=1;align=center;" parent="1" vertex="1">
          <mxGeometry x="525" y="384" width="140" height="60" as="geometry" />
        </mxCell>
        <mxCell id="0iNWYEbnOwwHhJDFPIUG-38" style="edgeStyle=orthogonalEdgeStyle;rounded=0;orthogonalLoop=1;jettySize=auto;html=1;exitX=0;exitY=0.5;exitDx=0;exitDy=0;entryX=1;entryY=0.5;entryDx=0;entryDy=0;endArrow=none;endFill=0;" parent="1" source="0iNWYEbnOwwHhJDFPIUG-36" target="0iNWYEbnOwwHhJDFPIUG-6" edge="1">
          <mxGeometry relative="1" as="geometry" />
        </mxCell>
        <mxCell id="0iNWYEbnOwwHhJDFPIUG-41" value="(0,N)" style="edgeLabel;html=1;align=center;verticalAlign=middle;resizable=0;points=[];" parent="0iNWYEbnOwwHhJDFPIUG-38" vertex="1" connectable="0">
          <mxGeometry x="-0.6898" y="-1" relative="1" as="geometry">
            <mxPoint x="-6" as="offset" />
          </mxGeometry>
        </mxCell>
        <mxCell id="0iNWYEbnOwwHhJDFPIUG-42" value="(1,1)" style="edgeLabel;html=1;align=center;verticalAlign=middle;resizable=0;points=[];" parent="0iNWYEbnOwwHhJDFPIUG-38" vertex="1" connectable="0">
          <mxGeometry x="0.7252" y="-2" relative="1" as="geometry">
            <mxPoint x="5" as="offset" />
          </mxGeometry>
        </mxCell>
        <mxCell id="0iNWYEbnOwwHhJDFPIUG-36" value="Peça de&lt;br&gt;Projeto" style="shape=associativeEntity;whiteSpace=wrap;html=1;align=center;" parent="1" vertex="1">
          <mxGeometry x="335" y="520" width="140" height="60" as="geometry" />
        </mxCell>
        <mxCell id="0iNWYEbnOwwHhJDFPIUG-46" style="edgeStyle=orthogonalEdgeStyle;rounded=0;orthogonalLoop=1;jettySize=auto;html=1;exitX=1;exitY=0.5;exitDx=0;exitDy=0;entryX=0;entryY=0.5;entryDx=0;entryDy=0;endArrow=none;endFill=0;" parent="1" source="0iNWYEbnOwwHhJDFPIUG-44" target="0iNWYEbnOwwHhJDFPIUG-11" edge="1">
          <mxGeometry relative="1" as="geometry" />
        </mxCell>
        <mxCell id="0iNWYEbnOwwHhJDFPIUG-49" value="(0,N)" style="edgeLabel;html=1;align=center;verticalAlign=middle;resizable=0;points=[];" parent="0iNWYEbnOwwHhJDFPIUG-46" vertex="1" connectable="0">
          <mxGeometry x="-0.8742" y="2" relative="1" as="geometry">
            <mxPoint as="offset" />
          </mxGeometry>
        </mxCell>
        <mxCell id="0iNWYEbnOwwHhJDFPIUG-50" value="(1,1)" style="edgeLabel;html=1;align=center;verticalAlign=middle;resizable=0;points=[];" parent="0iNWYEbnOwwHhJDFPIUG-46" vertex="1" connectable="0">
          <mxGeometry x="0.8905" relative="1" as="geometry">
            <mxPoint as="offset" />
          </mxGeometry>
        </mxCell>
        <mxCell id="0iNWYEbnOwwHhJDFPIUG-47" style="edgeStyle=orthogonalEdgeStyle;rounded=0;orthogonalLoop=1;jettySize=auto;html=1;exitX=0.5;exitY=1;exitDx=0;exitDy=0;endArrow=none;endFill=0;" parent="1" source="0iNWYEbnOwwHhJDFPIUG-44" target="0iNWYEbnOwwHhJDFPIUG-6" edge="1">
          <mxGeometry relative="1" as="geometry" />
        </mxCell>
        <mxCell id="0iNWYEbnOwwHhJDFPIUG-48" value="(0,N)" style="edgeLabel;html=1;align=center;verticalAlign=middle;resizable=0;points=[];" parent="0iNWYEbnOwwHhJDFPIUG-47" vertex="1" connectable="0">
          <mxGeometry x="-0.8364" y="2" relative="1" as="geometry">
            <mxPoint as="offset" />
          </mxGeometry>
        </mxCell>
        <mxCell id="0iNWYEbnOwwHhJDFPIUG-51" value="(1,1)" style="edgeLabel;html=1;align=center;verticalAlign=middle;resizable=0;points=[];" parent="0iNWYEbnOwwHhJDFPIUG-47" vertex="1" connectable="0">
          <mxGeometry x="0.8555" y="-2" relative="1" as="geometry">
            <mxPoint x="2" as="offset" />
          </mxGeometry>
        </mxCell>
        <mxCell id="0iNWYEbnOwwHhJDFPIUG-44" value="Fornecedores&amp;nbsp;&lt;br&gt;por peça" style="shape=associativeEntity;whiteSpace=wrap;html=1;align=center;" parent="1" vertex="1">
          <mxGeometry x="145" y="260" width="140" height="60" as="geometry" />
        </mxCell>
      </root>
    </mxGraphModel>
  </diagram>
</mxfile>
